# xmcd CD database file
#
# Track frame offsets:
#	150
#	18788
#	36152
#	51461
#	69267
#	84458
#	96159
#	107302
#	125007
#	143605
#	157911
#	171653
#	185729
#	206249
#	223823
#	239745
#	251063
#	283641
#
# Disc length: 3936 seconds
#
# Revision: 0
# Processed by: cddbd v1.5.1PL0 Copyright (c) Steve Scherf et al.
# Submitted via: CDex 1.51
#
DISCID=0e0f5e12
DTITLE=American Cowboy - Amaerican Cowboy
DYEAR=2005
DGENRE=Country
TTITLE0=A horse with no name - America
TTITLE1=Standing outside the fire - Garth brooks
TTITLE2=The girl from yesterday - Eagles
TTITLE3=Don't - Shania thain
TTITLE4=Achy break heart - Billy ray cyrus
TTITLE5=Little bitty - Alan jackson
TTITLE6=Who'll stop the rain - Creedence C revival
TTITLE7=Chottahoochee - Alan jackson
TTITLE8=Any man of mine - Shania twain
TTITLE9=Lodi - Creedence C Revival
TTITLE10=Midnight rodeo - Leon E
TTITLE11=Let's go to vegas - Faith hill
TTITLE12=Ain1t going down (til sun goms up) - Garth brooks
TTITLE13=Man I feel like a woman - Shania twain
TTITLE14=Sundown - G. Lightfoot
TTITLE15=Rool on, truckers - J newton and silver s
TTITLE16=Hotel california - Eagles
TTITLE17=Flint hill special - Lester F
EXTD=YEAR: 2005
EXTT0=
EXTT1=
EXTT2=
EXTT3=
EXTT4=
EXTT5=
EXTT6=
EXTT7=
EXTT8=
EXTT9=
EXTT10=
EXTT11=
EXTT12=
EXTT13=
EXTT14=
EXTT15=
EXTT16=
EXTT17=
PLAYORDER=
